<?xml version="1.0" ?><!-- Uploaded to: SVG Repo, www.svgrepo.com, Generator: SVG Repo Mixer Tools -->
<svg fill="#000000" width="800px" height="800px" viewBox="0 0 512 512" data-name="Layer 1" id="Layer_1" xmlns="http://www.w3.org/2000/svg"><title/><path d="M298.75,343.18H213.41a8,8,0,0,0-8,8v42.65a8,8,0,0,0,8,8h85.34a8,8,0,0,0,8-8V351.18A8,8,0,0,0,298.75,343.18Zm-8,42.65H221.41V359.18h69.34Zm8,32.85H213.41a8,8,0,0,0-8,8v42.66a8,8,0,0,0,8,8h85.34a8,8,0,0,0,8-8V426.68A8,8,0,0,0,298.75,418.68Zm-8,42.66H221.41V434.68h69.34Zm56.16-339L261.74,37a8,8,0,0,0-5.66-2.35h0A8,8,0,0,0,250.42,37l-85.33,85.34A8,8,0,0,0,170.75,136h34.66V318.32a8,8,0,0,0,8,8h85.34a8,8,0,0,0,8-8V136h34.5a8,8,0,0,0,5.66-13.65ZM298.75,120a8,8,0,0,0-8,8V310.32H221.41V128a8,8,0,0,0-8-8H190.06l66-66L322,120Z"/></svg>